<svg width="260" height="260" viewBox="0 0 260 260" fill="none" xmlns="http://www.w3.org/2000/svg">
<g clip-path="url(#clip0_0_819)">
<circle cx="130" cy="130" r="130" fill="#748C70"/>
<path fill-rule="evenodd" clip-rule="evenodd" d="M87.1207 252.769C88.024 248.616 89.0993 244.565 90.3592 240.622C75.3358 222.954 75.319 205.791 75.319 197.187L75.319 197.176C75.3844 173.799 82.4266 152.243 100.443 136.614C118.362 121.07 146.514 111.937 187.652 111.937H223.89C226.099 111.937 227.89 113.728 227.89 115.937V133.993C227.89 134.069 227.888 134.146 227.883 134.222C225.593 174.119 214.606 202.292 196.424 220.481C178.203 238.709 153.345 246.326 124.584 246.326H97.3745C97.2464 246.326 97.119 246.32 96.9926 246.308C96.1606 249.197 95.4261 252.155 94.785 255.181C92.1966 254.454 89.641 253.649 87.1207 252.769ZM109.857 218.026C105.686 224.282 102.295 231.059 99.6078 238.326H124.584C151.959 238.326 174.496 231.102 190.766 214.825C207.058 198.527 217.651 172.568 219.89 133.878V119.937H187.652C147.54 119.937 121.589 128.861 105.685 142.657C89.8808 156.367 83.381 175.433 83.319 197.193V197.218C83.3189 204.607 83.3189 217.694 93.5732 231.784C96.2028 225.378 99.3916 219.301 103.2 213.588C113.817 197.664 129.107 184.782 150.043 175.477C152.062 174.579 154.425 175.489 155.323 177.507C156.22 179.526 155.311 181.89 153.292 182.787C133.603 191.538 119.553 203.482 109.857 218.026Z" fill="white"/>
</g>
<defs>
<clipPath id="clip0_0_819">
<rect width="260" height="260" fill="white"/>
</clipPath>
</defs>
</svg>
